# xmcd
#
# Track frame offsets: 
#        150
#        16050
#        34058
#        49978
#        63664
#        75481
#        94721
#        109972
#        128625
#        146870
#        165987
#        181730
#        198715
#        214383
#        232074
#        247674
#        260951
#        278228
#        293965
#        310835
#        330135
#
# Disc length: 4634 seconds
#
# Revision: 0
# Processed by: cddbd v1.5.2PL0 Copyright (c) Steve Scherf et al.
# Submitted via: ExactAudioCopyFreeDBPlugin 1.0
#
DISCID=32121815
DTITLE=E-40 - The D-Boy Diary: Book 2
DYEAR=2016
DGENRE=West Coast Hip-Hop
TTITLE0=Bring Back The Sideshow (feat. Mistah F.A.B. and Nef The Pharaoh
TTITLE0=)
TTITLE1=Money (feat. Mozzy and Jay Rock)
TTITLE2=This Goin' Up (feat. Husalah and Turf Talk)
TTITLE3=On One (feat. AD)
TTITLE4=Get Money or Get Lost
TTITLE5=Highway (feat. B-Legit and TreSolid)
TTITLE6=Sick Out Here (feat. Droop-E)
TTITLE7=Thank U (feat. Willy Will)
TTITLE8=Military Time (feat. Salsalino and Baby Treasure)
TTITLE9=Uh Huh (feat. YV)
TTITLE10=2 Seater (feat. Kid Ink)
TTITLE11=What It's Gone Be (feat. D-Day and Tamoya Bell)
TTITLE12=How Do U Like That
TTITLE13=I Know a Guy
TTITLE14=All I Know (feat. K Camp and Casey Veggies)
TTITLE15=Waitin' On a Play (feat. Nicamari)
TTITLE16=Tycoon
TTITLE17=Broke Bitches (feat. Joe Moses and Jay 305)
TTITLE18=Flash On These Bitches (feat. Lil B)
TTITLE19=Too Many
TTITLE20=Paid Off (feat. Stresmatic)
EXTD=
EXTT0=
EXTT1=
EXTT2=
EXTT3=
EXTT4=
EXTT5=
EXTT6=
EXTT7=
EXTT8=
EXTT9=
EXTT10=
EXTT11=
EXTT12=
EXTT13=
EXTT14=
EXTT15=
EXTT16=
EXTT17=
EXTT18=
EXTT19=
EXTT20=
PLAYORDER=
